{
  "asset": {
    "version": "2.0",
    "generator": "THREE.GLTFExporter r176"
  },
  "scenes": [
    {
      "name": "Scene",
      "nodes": [
        2
      ]
    }
  ],
  "scene": 0,
  "nodes": [
    {
      "matrix": [
        1.02,
        0,
        0,
        0,
        0,
        0.98,
        0,
        0,
        0,
        0,
        1.02,
        0,
        0,
        0,
        0,
        1
      ],
      "name": "Icing001",
      "extras": {
        "name": "Icing.001"
      },
      "mesh": 1
    },
    {
      "matrix": [
        3.0064539909362793,
        0,
        0,
        0,
        0,
        3.0064539909362793,
        0,
        0,
        0,
        0,
        3.0064539909362793,
        0,
        0,
        0,
        0,
        1
      ],
      "name": "Donut001",
      "extras": {
        "name": "Donut.001"
      },
      "mesh": 0,
      "children": [
        0
      ]
    },
    {
      "name": "donutblender4.0_new.glb",
      "children": [
        1
      ]
    }
  ],
  "bufferViews": [
    {
      "buffer": 0,
      "byteOffset": 0,
      "byteLength": 5148,
      "target": 34962,
      "byteStride": 12
    },
    {
      "buffer": 0,
      "byteOffset": 5148,
      "byteLength": 5148,
      "target": 34962,
      "byteStride": 12
    },
    {
      "buffer": 0,
      "byteOffset": 10296,
      "byteLength": 3432,
      "target": 34962,
      "byteStride": 8
    },
    {
      "buffer": 0,
      "byteOffset": 13728,
      "byteLength": 4608,
      "target": 34963
    },
    {
      "buffer": 0,
      "byteOffset": 18336,
      "byteLength": 333024,
      "target": 34962,
      "byteStride": 12
    },
    {
      "buffer": 0,
      "byteOffset": 351360,
      "byteLength": 333024,
      "target": 34962,
      "byteStride": 12
    },
    {
      "buffer": 0,
      "byteOffset": 684384,
      "byteLength": 222016,
      "target": 34962,
      "byteStride": 8
    },
    {
      "buffer": 0,
      "byteOffset": 906400,
      "byteLength": 331776,
      "target": 34963
    }
  ],
  "buffers": [
    {
      "byteLength": 1238176,
      "uri": "data:application/octet-stream;base64,"
    }
  ],
  "accessors": [
    {
      "bufferView": 0,
      "componentType": 5126,
      "count": 429,
      "max": [
        0.06064657121896744,
        0.02496517077088356,
        0.06063908711075783
      ],
      "min": [
        -0.060793954879045486,
        -0.02552546188235283,
        -0.06042769178748131
      ],
      "type": "VEC3"
    },
    {
      "bufferView": 1,
      "componentType": 5126,
      "count": 429,
      "max": [
        0.9999960660934448,
        0.9999885559082031,
        0.9999984502792358
      ],
      "min": [
        -0.9997357726097107,
        -0.9999915361404419,
        -0.9999908208847046
      ],
      "type": "VEC3"
    },
    {
      "bufferView": 2,
      "componentType": 5126,
      "count": 429,
      "max": [
        1,
        1
      ],
      "min": [
        0,
        0
      ],
      "type": "VEC2"
    },
    {
      "bufferView": 3,
      "componentType": 5123,
      "count": 2304,
      "max": [
        428
      ],
      "min": [
        0
      ],
      "type": "SCALAR"
    },
    {
      "bufferView": 4,
      "componentType": 5126,
      "count": 27752,
      "max": [
        0.062277790158987045,
        0.025985360145568848,
        0.06270255893468857
      ],
      "min": [
        -0.06243717297911644,
        -0.024572627618908882,
        -0.0623757466673851
      ],
      "type": "VEC3"
    },
    {
      "bufferView": 5,
      "componentType": 5126,
      "count": 27752,
      "max": [
        0.9999823570251465,
        0.9999942779541016,
        0.9998524188995361
      ],
      "min": [
        -0.999925971031189,
        -0.9999966621398926,
        -0.9999508857727051
      ],
      "type": "VEC3"
    },
    {
      "bufferView": 6,
      "componentType": 5126,
      "count": 27752,
      "max": [
        1.000000238418579,
        0.5
      ],
      "min": [
        0,
        -2.384185791015625e-7
      ],
      "type": "VEC2"
    },
    {
      "bufferView": 7,
      "componentType": 5123,
      "count": 165888,
      "max": [
        27751
      ],
      "min": [
        0
      ],
      "type": "SCALAR"
    }
  ],
  "materials": [
    {
      "pbrMetallicRoughness": {
        "metallicFactor": 0,
        "roughnessFactor": 0.5,
        "baseColorTexture": {
          "index": 0,
          "texCoord": 0
        }
      },
      "doubleSided": true,
      "name": "Material.002"
    },
    {
      "pbrMetallicRoughness": {
        "baseColorFactor": [
          1,
          0.19296038150787354,
          0.46693742275238037,
          1
        ],
        "metallicFactor": 0,
        "roughnessFactor": 0.31889763474464417
      },
      "doubleSided": true,
      "name": "Material.001"
    }
  ],
  "textures": [
    {
      "sampler": 0,
      "source": 0,
      "name": "donut base"
    }
  ],
  "samplers": [
    {
      "magFilter": 9729,
      "minFilter": 9987,
      "wrapS": 10497,
      "wrapT": 10497
    }
  ],
  "images": [
    {
      "mimeType": "image/png",
      "uri": "data:image/png;base64,"
    }
  ],
  "meshes": [
    {
      "primitives": [
        {
          "mode": 4,
          "attributes": {
            "POSITION": 0,
            "NORMAL": 1,
            "TEXCOORD_0": 2
          },
          "indices": 3,
          "material": 0
        }
      ]
    },
    {
      "primitives": [
        {
          "mode": 4,
          "attributes": {
            "POSITION": 4,
            "NORMAL": 5,
            "TEXCOORD_0": 6
          },
          "indices": 7,
          "material": 1
        }
      ]
    }
  ]
}