{
  "asset": {
    "version": "2.0",
    "generator": "THREE.GLTFExporter r176"
  },
  "scenes": [
    {
      "name": "Scene",
      "nodes": [
        1
      ]
    }
  ],
  "scene": 0,
  "nodes": [
    {
      "matrix": [
        3.0064539909362793,
        0,
        0,
        0,
        0,
        3.0064539909362793,
        0,
        0,
        0,
        0,
        3.0064539909362793,
        0,
        0,
        0,
        0,
        1
      ],
      "name": "sprinkles",
      "extras": {
        "name": "sprinkles"
      },
      "mesh": 0
    },
    {
      "name": "sprinkles.glb",
      "children": [
        0
      ]
    }
  ],
  "bufferViews": [
    {
      "buffer": 0,
      "byteOffset": 0,
      "byteLength": 430608,
      "target": 34962,
      "byteStride": 12
    },
    {
      "buffer": 0,
      "byteOffset": 430608,
      "byteLength": 430608,
      "target": 34962,
      "byteStride": 12
    },
    {
      "buffer": 0,
      "byteOffset": 861216,
      "byteLength": 287072,
      "target": 34962,
      "byteStride": 8
    },
    {
      "buffer": 0,
      "byteOffset": 1148288,
      "byteLength": 257040,
      "target": 34963
    }
  ],
  "buffers": [
    {
      "byteLength": 1405328,
      "uri": "data:application/octet-stream;base64,"
    }
  ],
  "accessors": [
    {
      "bufferView": 0,
      "componentType": 5126,
      "count": 35884,
      "max": [
        0.06213076040148735,
        0.027575938031077385,
        0.060487255454063416
      ],
      "min": [
        -0.05809248611330986,
        0.004826916381716728,
        -0.06033344194293022
      ],
      "type": "VEC3"
    },
    {
      "bufferView": 1,
      "componentType": 5126,
      "count": 35884,
      "max": [
        0.9999654293060303,
        0.999931812286377,
        0.999971866607666
      ],
      "min": [
        -0.9999192357063293,
        -0.999931812286377,
        -0.999971866607666
      ],
      "type": "VEC3"
    },
    {
      "bufferView": 2,
      "componentType": 5126,
      "count": 35884,
      "max": [
        1,
        0.9895559549331665
      ],
      "min": [
        7.450580596923828e-8,
        0
      ],
      "type": "VEC2"
    },
    {
      "bufferView": 3,
      "componentType": 5123,
      "count": 128520,
      "max": [
        35883
      ],
      "min": [
        0
      ],
      "type": "SCALAR"
    }
  ],
  "materials": [
    {
      "pbrMetallicRoughness": {
        "metallicFactor": 1,
        "roughnessFactor": 1
      },
      "doubleSided": true,
      "name": "Sprinkles"
    }
  ],
  "meshes": [
    {
      "primitives": [
        {
          "mode": 4,
          "attributes": {
            "POSITION": 0,
            "NORMAL": 1,
            "TEXCOORD_0": 2
          },
          "indices": 3,
          "material": 0
        }
      ]
    }
  ]
}